<?xml version="1.0" encoding="utf-8"?>
<!-- Generator: Adobe Illustrator 17.0.0, SVG Export Plug-In . SVG Version: 6.00 Build 0)  -->
<!DOCTYPE svg PUBLIC "-//W3C//DTD SVG 1.1//EN" "http://www.w3.org/Graphics/SVG/1.1/DTD/svg11.dtd">
<svg version="1.1" id="Capa_1" xmlns="http://www.w3.org/2000/svg" xmlns:xlink="http://www.w3.org/1999/xlink" x="0px" y="0px"
	 width="625.154px" height="625.15px" viewBox="0 0 625.154 625.15" enable-background="new 0 0 625.154 625.15"
	 xml:space="preserve">
<path d="M208.884,507.526H92.581c-22.221,0-40.614-17.449-40.614-39.667V107.34c0-22.221,18.396-39.548,40.614-39.548H374.06
	c22.22,0,40.337,17.33,40.337,39.548v302.08l51.989-61.79V68.737c0-29.219-23.088-52.917-52.285-52.917H50.452
	C22.396,15.82,0,38.553,0,66.588v441.273c0,29.219,23.362,52.975,52.62,52.975h204.214l-24.132-20.958
	C222.134,530.749,214.188,519.513,208.884,507.526z"/>
<path d="M609.188,320.838c-19.047-16.324-47.732-14.019-63.996,5.107L396.045,500.784l-74.564-64.037
	c-19.064-16.305-47.712-14.136-64.017,4.889c-16.344,19.046-14.136,47.673,4.889,63.996l109.087,93.689
	c8.32,7.057,18.75,10.96,29.574,10.96c1.222,0,2.346-0.039,3.589-0.138c11.967-0.928,23.185-6.625,30.992-15.792l178.739-209.519
	C630.54,365.77,628.313,337.143,609.188,320.838z"/>
<path d="M338.437,112.056l-14.742-12.449c-4.539-3.838-11.232-3.65-15.537,0.421l-8.143,7.628c-6.879-3.323-14.18-5.663-21.715-7.02
	l-2.292-11.232c-1.17-5.803-6.552-9.828-12.45-9.36l-19.235,1.638c-5.897,0.515-10.53,5.335-10.717,11.279l-0.374,11.419
	c-7.395,2.668-14.368,6.318-20.733,10.904l-9.734-6.458c-4.962-3.276-11.56-2.34-15.397,2.2l-12.449,14.836
	c-3.838,4.54-3.651,11.232,0.42,15.538l8.518,9.079c-2.949,6.646-5.055,13.619-6.271,20.779l-12.168,2.48
	c-5.803,1.17-9.828,6.552-9.36,12.449l1.638,19.235c0.515,5.897,5.335,10.53,11.279,10.717l13.151,0.421
	c2.388,6.271,5.523,12.215,9.313,17.784l-7.347,11.092c-3.276,4.961-2.34,11.56,2.199,15.397l14.742,12.449
	c4.54,3.838,11.232,3.65,15.538-0.421l9.641-9.032c6.318,2.948,12.963,5.148,19.796,6.458l2.668,13.198
	c1.17,5.803,6.552,9.828,12.449,9.36l19.235-1.638c5.897-0.515,10.53-5.335,10.717-11.279l0.421-12.917
	c7.02-2.48,13.665-5.85,19.796-10.015l10.624,7.02c4.961,3.276,11.559,2.34,15.397-2.2l12.449-14.742
	c3.837-4.54,3.65-11.232-0.421-15.538l-8.565-9.079c3.136-6.646,5.43-13.666,6.739-20.873l11.7-2.387
	c5.803-1.17,9.828-6.552,9.36-12.449l-1.638-19.235c-0.515-5.897-5.335-10.53-11.279-10.717l-11.747-0.374
	c-2.434-6.833-5.71-13.291-9.781-19.282l6.411-9.641C343.914,122.539,342.978,115.894,338.437,112.056z M265.945,223.253
	c-20.779,1.779-39.126-13.712-40.857-34.491c-1.779-20.779,13.713-39.125,34.491-40.857c20.779-1.778,39.126,13.713,40.857,34.492
	C302.215,203.176,286.723,221.521,265.945,223.253z"/>
<path d="M93.346,333.014c-5.897,0.608-10.436,5.569-10.483,11.513l-0.14,11.84c-0.094,5.944,4.306,10.998,10.202,11.747l8.705,1.123
	c1.451,5.289,3.51,10.343,6.178,15.117l-5.616,6.926c-3.744,4.633-3.463,11.279,0.702,15.538l8.284,8.471
	c4.165,4.259,10.811,4.727,15.538,1.076l6.973-5.382c4.914,2.902,10.109,5.195,15.538,6.786l0.936,8.986
	c0.608,5.897,5.569,10.436,11.513,10.483l11.841,0.14c5.943,0.094,10.998-4.306,11.747-10.202l1.076-8.518
	c5.897-1.451,11.513-3.65,16.848-6.552l6.552,5.288c4.633,3.744,11.279,3.463,15.538-0.702l8.471-8.284
	c4.259-4.165,4.727-10.811,1.077-15.538l-5.009-6.506c3.089-5.148,5.476-10.624,7.114-16.38l7.769-0.796
	c5.897-0.608,10.436-5.569,10.483-11.513l0.14-11.841c0.094-5.943-4.305-10.998-10.202-11.747l-7.582-0.983
	c-1.451-5.71-3.603-11.232-6.411-16.38l4.727-5.803c3.744-4.633,3.463-11.279-0.702-15.538l-8.283-8.471
	c-4.165-4.259-10.812-4.727-15.538-1.076l-5.663,4.352c-5.335-3.229-11.045-5.71-17.035-7.394l-0.749-7.348
	c-0.608-5.897-5.569-10.436-11.513-10.483l-11.84-0.14c-5.944-0.094-10.998,4.306-11.747,10.202l-0.936,7.301
	c-6.177,1.591-12.121,4.025-17.643,7.207l-5.85-4.774c-4.633-3.744-11.279-3.463-15.538,0.702l-8.518,8.331
	c-4.259,4.165-4.727,10.811-1.076,15.537l5.008,6.459c-2.902,5.148-5.195,10.623-6.692,16.38L93.346,333.014z M169.77,319.629
	c16.988,0.187,30.607,14.181,30.42,31.169c-0.187,16.988-14.181,30.607-31.169,30.42c-16.988-0.187-30.607-14.18-30.42-31.169
	C138.788,333.061,152.782,319.442,169.77,319.629z"/>
</svg>
